<?xml version="1.0" encoding="UTF-8" standalone="no"?>
<!DOCTYPE svg PUBLIC "-//W3C//DTD SVG 1.1//EN" "http://www.w3.org/Graphics/SVG/1.1/DTD/svg11.dtd">
<svg version="1.1" xmlns="http://www.w3.org/2000/svg" xmlns:xlink="http://www.w3.org/1999/xlink" preserveAspectRatio="xMidYMid meet" viewBox="0 0 640 640" width="640" height="640"><defs><path d="M640 94.74C640 351.79 640 494.6 640 523.16C640 523.16 640 523.16 640 523.16C256 523.16 42.67 523.16 0 523.16C0 523.16 0 523.16 0 523.16C0 266.11 0 123.3 0 94.74C0 94.74 0 94.74 0 94.74C384 94.74 597.33 94.74 640 94.74C640 94.74 640 94.74 640 94.74Z" id="a18x8cvgRi"></path><path d="M640 94.74C640 351.79 640 494.6 640 523.16C640 523.16 640 523.16 640 523.16C256 523.16 42.67 523.16 0 523.16C0 523.16 0 523.16 0 523.16C0 266.11 0 123.3 0 94.74C0 94.74 0 94.74 0 94.74C384 94.74 597.33 94.74 640 94.74C640 94.74 640 94.74 640 94.74Z" id="a1v6nZ4kr9"></path><path d="M621.12 142.34L320 329.5L18.88 142.34" id="cjjhb4M5L"></path><path d="M621.12 142.34L320 329.5L18.88 142.34" id="a8XnjWf4Y"></path></defs><g><g><g><use xlink:href="#a18x8cvgRi" opacity="1" fill="#ff5a3c" fill-opacity="1"></use><g><use xlink:href="#a18x8cvgRi" opacity="1" fill-opacity="0" stroke="#000000" stroke-width="1" stroke-opacity="0"></use></g></g><g><use xlink:href="#a1v6nZ4kr9" opacity="1" fill="#000000" fill-opacity="0"></use><g><use xlink:href="#a1v6nZ4kr9" opacity="1" fill-opacity="0" stroke="#ff5a3c" stroke-width="2" stroke-opacity="1"></use></g></g><g><use xlink:href="#cjjhb4M5L" opacity="1" fill="#000000" fill-opacity="0"></use><g><use xlink:href="#cjjhb4M5L" opacity="1" fill-opacity="0" stroke="#000000" stroke-width="1" stroke-opacity="0"></use></g></g><g><use xlink:href="#a8XnjWf4Y" opacity="1" fill="#000000" fill-opacity="0"></use><g><use xlink:href="#a8XnjWf4Y" opacity="1" fill-opacity="0" stroke="#ffffff" stroke-width="10" stroke-opacity="1"></use></g></g></g></g></svg>