<?xml version="1.0" encoding="UTF-8" standalone="no"?>
<!DOCTYPE svg PUBLIC "-//W3C//DTD SVG 1.1//EN" "http://www.w3.org/Graphics/SVG/1.1/DTD/svg11.dtd">
<svg version="1.1" xmlns="http://www.w3.org/2000/svg" xmlns:xlink="http://www.w3.org/1999/xlink" preserveAspectRatio="xMidYMid meet" viewBox="0 0 640 640" width="640" height="640"><defs><path d="M148.75 511.2C123.45 501.85 99.95 490.12 79.19 473.63C57.27 456.23 40.07 435.71 27.42 411.69C15.37 388.61 8.64 364.05 4.89 338.76C3.5 328.87 2.71 318.97 2.71 309.08C2.71 299.74 1.13 290.39 0.94 281.05C0.74 274.45 0.55 267.67 0.74 261.07C0.94 247.51 -0.45 233.95 0.15 220.39C1.34 189.61 7.27 159.55 20.31 130.97C38.88 90.29 69.31 59.5 110.81 37.88C142.03 21.76 175.22 11.49 210.4 6.19C232.13 2.89 253.87 1.06 275.81 0.5C301.89 -0.23 327.96 -0.04 354.25 0.32C387.84 0.69 421.04 3.62 453.65 10.95C484.66 17.72 513.91 28.54 540.78 44.48C573.39 63.73 598.29 89.19 615.08 121.63C625.56 141.6 631.88 162.68 636.03 184.47C639 200.6 640.18 216.73 639.98 233.04C639.79 250.27 639.39 267.49 638.21 284.52C637.42 296.25 637.42 307.98 636.82 319.71C634.65 352.15 627.54 383.47 612.12 412.79C593.15 448.71 564.49 475.83 526.95 495.44C495.94 511.57 462.74 521.64 427.96 527.14C400.69 531.36 373.03 533.37 345.37 533.37C328.37 533.37 311.38 533.19 294.38 533.37C285.69 533.37 277 533.56 268.3 532.63C265.54 532.46 263.56 533.19 261.77 535.2C248.15 549.86 234.5 564.52 220.67 579.18C203.68 597.33 186.69 615.46 169.9 633.42C168.11 635.25 166.13 637.08 163.97 638.37C158.63 641.67 153.09 639.84 151.72 633.97C151.32 632.68 151.51 631.04 151.51 629.75C151.32 611.06 151.72 592.19 151.91 573.5C151.91 573.5 151.91 573.5 151.91 573.5C152.11 554.62 152.51 535.76 152.7 516.87C152.7 512.48 153.3 513.03 148.75 511.2Z" id="b2ZCP1hY5G"></path><path d="M148.75 511.2C123.45 501.85 99.95 490.12 79.19 473.63C57.27 456.23 40.07 435.71 27.42 411.69C15.37 388.61 8.64 364.05 4.89 338.76C3.5 328.87 2.71 318.97 2.71 309.08C2.71 299.74 1.13 290.39 0.94 281.05C0.74 274.45 0.55 267.67 0.74 261.07C0.94 247.51 -0.45 233.95 0.15 220.39C1.34 189.61 7.27 159.55 20.31 130.97C38.88 90.29 69.31 59.5 110.81 37.88C142.03 21.76 175.22 11.49 210.4 6.19C232.13 2.89 253.87 1.06 275.81 0.5C301.89 -0.23 327.96 -0.04 354.25 0.32C387.84 0.69 421.04 3.62 453.65 10.95C484.66 17.72 513.91 28.54 540.78 44.48C573.39 63.73 598.29 89.19 615.08 121.63C625.56 141.6 631.88 162.68 636.03 184.47C639 200.6 640.18 216.73 639.98 233.04C639.79 250.27 639.39 267.49 638.21 284.52C637.42 296.25 637.42 307.98 636.82 319.71C634.65 352.15 627.54 383.47 612.12 412.79C593.15 448.71 564.49 475.83 526.95 495.44C495.94 511.57 462.74 521.64 427.96 527.14C400.69 531.36 373.03 533.37 345.37 533.37C328.37 533.37 311.38 533.19 294.38 533.37C285.69 533.37 277 533.56 268.3 532.63C265.54 532.46 263.56 533.19 261.77 535.2C248.15 549.86 234.5 564.52 220.67 579.18C203.68 597.33 186.69 615.46 169.9 633.42C168.11 635.25 166.13 637.08 163.97 638.37C158.63 641.67 153.09 639.84 151.72 633.97C151.32 632.68 151.51 631.04 151.51 629.75C151.32 611.06 151.72 592.19 151.91 573.5C151.91 573.5 151.91 573.5 151.91 573.5C152.11 554.62 152.51 535.76 152.7 516.87C152.7 512.48 153.3 513.03 148.75 511.2Z" id="a97jH2hNXr"></path><path d="M183.73 105.5C194 103.48 203.88 104.77 212.58 110.81C218.3 114.67 223.04 119.43 227.79 124.2C243.59 140.32 257.03 157.72 267.91 177.15C269.68 180.44 271.26 183.93 272.44 187.6C275.81 198.03 273.23 207.2 265.72 215.26C262.96 218.19 259.8 220.76 256.45 223.15C253.28 225.15 250.12 227.35 247.15 229.92C240.24 235.97 238.27 243.3 240.43 251.73C241.22 255.21 242.61 258.5 243.99 261.63C252.1 278.12 262.96 292.95 277 305.78C285.3 313.3 294.18 319.9 304.06 325.57C313.54 331.07 323.03 336.2 333.7 339.69C343.58 342.99 351.09 340.96 357.62 333.27C360.38 329.97 362.75 326.49 365.92 323.37C371.84 317.51 378.56 313.11 387.05 311.28C396.35 309.25 405.23 310.74 413.73 314.21C421.83 317.33 428.94 322.1 436.06 326.67C450.28 335.83 464.11 345.55 477.55 355.62C481.11 358.38 484.27 361.49 487.24 364.97C494.15 373.4 495.54 382.74 492.57 392.64C489.8 402.17 484.66 410.42 477.95 417.92C466.3 431.12 452.07 441.01 434.47 446.33C429.73 447.8 424.99 448.71 420.06 449.08C413.73 449.63 407.81 447.61 401.88 445.97C396.14 444.5 390.81 441.94 385.47 439.74C358.8 428.74 333.11 415.73 308.8 400.7C272.25 378.17 239.64 351.78 211.19 320.81C190.04 297.72 171.67 272.8 156.05 246.04C145.98 229.01 137.08 211.42 129.57 193.27C126.62 185.4 124.84 175.31 124.84 167.81C125.43 145.45 136.5 128.59 156.46 116.5C164.76 111.37 173.85 107.34 183.73 105.5Z" id="ahug7kgKN"></path><path d="M183.73 105.5C194 103.48 203.88 104.77 212.58 110.81C218.3 114.67 223.04 119.43 227.79 124.2C243.59 140.32 257.03 157.72 267.91 177.15C269.68 180.44 271.26 183.93 272.44 187.6C275.81 198.03 273.23 207.2 265.72 215.26C262.96 218.19 259.8 220.76 256.45 223.15C253.28 225.15 250.12 227.35 247.15 229.92C240.24 235.97 238.27 243.3 240.43 251.73C241.22 255.21 242.61 258.5 243.99 261.63C252.1 278.12 262.96 292.95 277 305.78C285.3 313.3 294.18 319.9 304.06 325.57C313.54 331.07 323.03 336.2 333.7 339.69C343.58 342.99 351.09 340.96 357.62 333.27C360.38 329.97 362.75 326.49 365.92 323.37C371.84 317.51 378.56 313.11 387.05 311.28C396.35 309.25 405.23 310.74 413.73 314.21C421.83 317.33 428.94 322.1 436.06 326.67C450.28 335.83 464.11 345.55 477.55 355.62C481.11 358.38 484.27 361.49 487.24 364.97C494.15 373.4 495.54 382.74 492.57 392.64C489.8 402.17 484.66 410.42 477.95 417.92C466.3 431.12 452.07 441.01 434.47 446.33C429.73 447.8 424.99 448.71 420.06 449.08C413.73 449.63 407.81 447.61 401.88 445.97C396.14 444.5 390.81 441.94 385.47 439.74C358.8 428.74 333.11 415.73 308.8 400.7C272.25 378.17 239.64 351.78 211.19 320.81C190.04 297.72 171.67 272.8 156.05 246.04C145.98 229.01 137.08 211.42 129.57 193.27C126.62 185.4 124.84 175.31 124.84 167.81C125.43 145.45 136.5 128.59 156.46 116.5C164.76 111.37 173.85 107.34 183.73 105.5Z" id="aqt7RfEF2"></path><path d="M483.68 268.96C477.36 266.57 475.39 261.44 474.78 255.76C474.18 248.8 473.6 241.84 472.41 234.87C468.46 213.43 462.14 192.73 449.7 174.04C440.4 160.11 428.36 148.75 413.34 139.76C395.95 129.33 376.59 123.27 356.43 119.06C347.74 117.23 338.84 115.77 329.95 115.03C327.77 114.84 325.79 114.48 323.82 113.74C317.7 111.74 314.54 107.51 314.93 101.47C315.73 90.85 322.24 86.62 331.14 86.62C364.92 86.08 395.74 94.32 424.01 111.37C440.59 121.44 455.42 133.36 467.67 147.83C491.38 175.87 505.21 207.75 505.42 242.38C505.21 248.43 506.01 252.83 505.42 257.04C504.03 267.49 494.15 272.99 483.68 268.96Z" id="fbYO2Ia28"></path><path d="M483.68 268.96C477.36 266.57 475.39 261.44 474.78 255.76C474.18 248.8 473.6 241.84 472.41 234.87C468.46 213.43 462.14 192.73 449.7 174.04C440.4 160.11 428.36 148.75 413.34 139.76C395.95 129.33 376.59 123.27 356.43 119.06C347.74 117.23 338.84 115.77 329.95 115.03C327.77 114.84 325.79 114.48 323.82 113.74C317.7 111.74 314.54 107.51 314.93 101.47C315.73 90.85 322.24 86.62 331.14 86.62C364.92 86.08 395.74 94.32 424.01 111.37C440.59 121.44 455.42 133.36 467.67 147.83C491.38 175.87 505.21 207.75 505.42 242.38C505.21 248.43 506.01 252.83 505.42 257.04C504.03 267.49 494.15 272.99 483.68 268.96Z" id="bx14DBULA"></path><path d="M439.42 261.07C431.31 261.26 426.18 257.96 424.4 251.17C423.61 248.61 423.61 245.87 423.2 243.11C421.83 230.84 418.67 218.75 413.53 207.2C406.42 190.7 393.56 179.53 375.99 172.57C363.73 167.81 351.09 164.32 338.05 162.49C334.49 161.94 331.14 161.21 327.96 159.74C326.38 159.01 325 158.09 324.01 156.81C319.68 151.86 319.87 146.55 322.24 141.05C324.21 136.1 328.37 133.36 334.09 132.8C338.84 132.26 343.58 132.99 348.32 133.72C361.55 135.56 374.4 138.66 386.66 143.99C402.26 150.95 415.69 160.65 427.16 172.75C436.85 183.18 444.16 194.74 448.89 207.75C452.26 217.82 454.04 227.91 454.23 239.08C454.04 242.2 454.63 246.23 453.65 250.27C452.26 257.04 447.12 260.89 439.42 261.07Z" id="a15Q2cgucc"></path><path d="M439.42 261.07C431.31 261.26 426.18 257.96 424.4 251.17C423.61 248.61 423.61 245.87 423.2 243.11C421.83 230.84 418.67 218.75 413.53 207.2C406.42 190.7 393.56 179.53 375.99 172.57C363.73 167.81 351.09 164.32 338.05 162.49C334.49 161.94 331.14 161.21 327.96 159.74C326.38 159.01 325 158.09 324.01 156.81C319.68 151.86 319.87 146.55 322.24 141.05C324.21 136.1 328.37 133.36 334.09 132.8C338.84 132.26 343.58 132.99 348.32 133.72C361.55 135.56 374.4 138.66 386.66 143.99C402.26 150.95 415.69 160.65 427.16 172.75C436.85 183.18 444.16 194.74 448.89 207.75C452.26 217.82 454.04 227.91 454.23 239.08C454.04 242.2 454.63 246.23 453.65 250.27C452.26 257.04 447.12 260.89 439.42 261.07Z" id="h1TyWOThxW"></path><path d="M391.6 255.57C385.47 256.31 380.54 254.3 377.17 249.53C375.4 247.14 374.61 244.58 374.21 241.84C373.42 237.25 372.82 232.48 370.85 228.28C366.71 218.92 358.8 213.43 348.53 210.86C346.55 210.32 344.37 209.95 342.39 209.59C340.81 209.22 339.04 208.85 337.46 208.49C330.14 206.46 326.38 202.26 326.38 196.39C326.38 189.43 330.54 183.74 337.46 181.91C344.16 180.08 351.09 180.44 357.81 182.1C373.82 186.31 385.68 195.66 394.95 208.12C401.09 216.18 405.04 225.34 405.04 235.61C405.04 239.27 405.04 242.94 403.65 246.41C401.67 251.73 397.53 254.84 391.6 255.57Z" id="afOb1WmSy"></path><path d="M391.6 255.57C385.47 256.31 380.54 254.3 377.17 249.53C375.4 247.14 374.61 244.58 374.21 241.84C373.42 237.25 372.82 232.48 370.85 228.28C366.71 218.92 358.8 213.43 348.53 210.86C346.55 210.32 344.37 209.95 342.39 209.59C340.81 209.22 339.04 208.85 337.46 208.49C330.14 206.46 326.38 202.26 326.38 196.39C326.38 189.43 330.54 183.74 337.46 181.91C344.16 180.08 351.09 180.44 357.81 182.1C373.82 186.31 385.68 195.66 394.95 208.12C401.09 216.18 405.04 225.34 405.04 235.61C405.04 239.27 405.04 242.94 403.65 246.41C401.67 251.73 397.53 254.84 391.6 255.57Z" id="j8Hhp4vZo"></path></defs><g><g><g><use xlink:href="#b2ZCP1hY5G" opacity="1" fill="#ff5a3c" fill-opacity="1"></use><g><use xlink:href="#b2ZCP1hY5G" opacity="1" fill-opacity="0" stroke="#000000" stroke-width="1" stroke-opacity="0"></use></g></g><g><use xlink:href="#a97jH2hNXr" opacity="1" fill="#000000" fill-opacity="0"></use><g><use xlink:href="#a97jH2hNXr" opacity="1" fill-opacity="0" stroke="#000000" stroke-width="1" stroke-opacity="0"></use></g></g><g><use xlink:href="#ahug7kgKN" opacity="1" fill="#ffffff" fill-opacity="1"></use><g><use xlink:href="#ahug7kgKN" opacity="1" fill-opacity="0" stroke="#000000" stroke-width="1" stroke-opacity="0"></use></g></g><g><use xlink:href="#aqt7RfEF2" opacity="1" fill="#000000" fill-opacity="0"></use><g><use xlink:href="#aqt7RfEF2" opacity="1" fill-opacity="0" stroke="#000000" stroke-width="1" stroke-opacity="0"></use></g></g><g><use xlink:href="#fbYO2Ia28" opacity="1" fill="#ffffff" fill-opacity="1"></use><g><use xlink:href="#fbYO2Ia28" opacity="1" fill-opacity="0" stroke="#000000" stroke-width="1" stroke-opacity="0"></use></g></g><g><use xlink:href="#bx14DBULA" opacity="1" fill="#000000" fill-opacity="0"></use><g><use xlink:href="#bx14DBULA" opacity="1" fill-opacity="0" stroke="#000000" stroke-width="1" stroke-opacity="0"></use></g></g><g><use xlink:href="#a15Q2cgucc" opacity="1" fill="#ffffff" fill-opacity="1"></use><g><use xlink:href="#a15Q2cgucc" opacity="1" fill-opacity="0" stroke="#000000" stroke-width="1" stroke-opacity="0"></use></g></g><g><use xlink:href="#h1TyWOThxW" opacity="1" fill="#000000" fill-opacity="0"></use><g><use xlink:href="#h1TyWOThxW" opacity="1" fill-opacity="0" stroke="#000000" stroke-width="1" stroke-opacity="0"></use></g></g><g><use xlink:href="#afOb1WmSy" opacity="1" fill="#ffffff" fill-opacity="1"></use><g><use xlink:href="#afOb1WmSy" opacity="1" fill-opacity="0" stroke="#000000" stroke-width="1" stroke-opacity="0"></use></g></g><g><use xlink:href="#j8Hhp4vZo" opacity="1" fill="#000000" fill-opacity="0"></use><g><use xlink:href="#j8Hhp4vZo" opacity="1" fill-opacity="0" stroke="#000000" stroke-width="1" stroke-opacity="0"></use></g></g></g></g></svg>