<?xml version="1.0" encoding="UTF-8" standalone="no"?>
<!DOCTYPE svg PUBLIC "-//W3C//DTD SVG 1.1//EN" "http://www.w3.org/Graphics/SVG/1.1/DTD/svg11.dtd">
<svg version="1.1" xmlns="http://www.w3.org/2000/svg" xmlns:xlink="http://www.w3.org/1999/xlink" preserveAspectRatio="xMidYMid meet" viewBox="0 0 640 640" width="640" height="640"><defs><path d="M319.92 0C319.92 0 319.92 0 319.92 0C143.48 0 0 143.52 0 320C0 390 22.56 454.88 60.92 507.56C58.26 515.49 44.97 555.11 21.04 626.44C94.84 602.85 135.84 589.74 144.04 587.12C194.64 620.64 255 640 320.08 640C496.52 640 640 496.44 640 320C640 143.56 496.52 0 320.08 0C320.06 0 320.01 0 319.92 0Z" id="dv4ST7IZQ"></path><path d="M443.48 497.04C426.76 500.6 404.92 503.44 331.4 472.96C237.36 434 176.8 338.44 172.08 332.24C167.56 326.04 134.08 281.64 134.08 235.72C134.08 189.8 157.4 167.44 166.8 157.84C174.52 149.96 187.28 146.36 199.52 146.36C203.48 146.36 207.04 146.56 210.24 146.72C219.64 147.12 224.36 147.68 230.56 162.52C238.28 181.12 257.08 227.04 259.32 231.76C261.6 236.48 263.88 242.88 260.68 249.08C257.68 255.48 255.04 258.32 250.32 263.76C245.6 269.2 241.12 273.36 236.4 279.2C232.08 284.28 227.2 289.72 232.64 299.12C238.08 308.32 256.88 339 284.56 363.64C320.28 395.44 349.24 405.6 359.6 409.92C367.32 413.12 376.52 412.36 382.16 406.36C389.32 398.64 398.16 385.84 407.16 373.24C413.56 364.2 421.64 363.08 430.12 366.28C438.76 369.28 484.48 391.88 493.88 396.56C503.28 401.28 509.48 403.52 511.76 407.48C514 411.44 514 430.04 506.28 451.88C498.56 473.68 467.92 491.76 443.48 497.04Z" id="h8S74aPmI"></path></defs><g><g><g><use xlink:href="#dv4ST7IZQ" opacity="1" fill="#ff5a3c" fill-opacity="1"></use><g><use xlink:href="#dv4ST7IZQ" opacity="1" fill-opacity="0" stroke="#000000" stroke-width="1" stroke-opacity="0"></use></g></g><g><use xlink:href="#h8S74aPmI" opacity="1" fill="#ffffff" fill-opacity="1"></use><g><use xlink:href="#h8S74aPmI" opacity="1" fill-opacity="0" stroke="#000000" stroke-width="1" stroke-opacity="0"></use></g></g></g></g></svg>